<?xml version="1.0" encoding="UTF-8"?>
<svg version="1.1" xmlns="http://www.w3.org/2000/svg" width="512" height="512">
<path d="M0 0 C168.96 0 337.92 0 512 0 C512 168.96 512 337.92 512 512 C343.04 512 174.08 512 0 512 C0 343.04 0 174.08 0 0 Z " fill="#FEFEFE" transform="translate(0,0)"/>
<path d="M0 0 C2.8125 -0.3125 2.8125 -0.3125 6 0 C7.453125 2.19921875 7.453125 2.19921875 9 5 C10.29522547 6.7214674 11.60957986 8.4286253 12.9375 10.125 C18.72611968 17.75761348 23.76289786 25.85634938 28.77246094 34.01513672 C29.77249863 35.63214277 30.80712561 37.22771637 31.8515625 38.81640625 C33 41 33 41 33 45 C33.66 45 34.32 45 35 45 C35.31453125 45.82242188 35.6290625 46.64484375 35.953125 47.4921875 C37.92607548 52.63849808 39.89969729 57.77918358 42 62.875 C47.46554155 76.61567876 51.10473787 90.51600962 54 105 C54.16806152 105.82145508 54.33612305 106.64291016 54.50927734 107.48925781 C62.29232555 147.02552962 57.63936733 197.02168631 39 233 C38.55527344 234.05445313 38.11054688 235.10890625 37.65234375 236.1953125 C28.69835719 257.34874354 16.20298245 275.91107795 1 293 C0.55833496 293.50337891 0.11666992 294.00675781 -0.33837891 294.52539062 C-17.33149478 313.85746403 -37.19583586 329.48969387 -59.81420898 341.80102539 C-61.35412283 342.64571621 -62.8841008 343.50864722 -64.40649414 344.38452148 C-65.58973267 345.06236694 -65.58973267 345.06236694 -66.796875 345.75390625 C-67.50553711 346.16455322 -68.21419922 346.5752002 -68.94433594 346.99829102 C-71.97803011 348.47658641 -74.65067069 348.78621302 -78 349 C-78 349.66 -78 350.32 -78 351 C-91.18359375 355.39453125 -91.18359375 355.39453125 -93.59985352 356.19775391 C-95.18024323 356.72599728 -96.7589197 357.25939871 -98.33569336 357.79833984 C-134.01226515 369.93104666 -177.2640131 373.57748416 -214 364 C-214.74958984 363.81808105 -215.49917969 363.63616211 -216.27148438 363.44873047 C-221.57783638 362.15677923 -226.79027199 360.63551636 -232 359 C-232.94552734 358.70577148 -233.89105469 358.41154297 -234.86523438 358.10839844 C-260.14809293 350.16812688 -282.85495505 339.07367238 -304 323 C-304.97195313 322.41089844 -305.94390625 321.82179688 -306.9453125 321.21484375 C-309 319 -309 319 -309.08203125 315.24609375 C-308.17217902 310.66081985 -306.13837945 306.997102 -303.6875 303.0625 C-303.02741943 301.97376587 -303.02741943 301.97376587 -302.35400391 300.86303711 C-292.82394221 285.38209977 -281.90662102 271.0589749 -269.53515625 257.7578125 C-267.55963751 255.60878904 -265.66595636 253.43992926 -263.8125 251.1875 C-260.56562598 247.36279247 -256.82763813 244.22759585 -253 241 C-252.07445312 240.18660156 -251.14890625 239.37320313 -250.1953125 238.53515625 C-241.59057972 231.01801561 -232.46649648 224.3884029 -223 218 C-222.071875 217.36835938 -221.14375 216.73671875 -220.1875 216.0859375 C-207.6270133 208.02904636 -192.44405823 204.92501877 -178 202 C-177.18644043 201.83193848 -176.37288086 201.66387695 -175.53466797 201.49072266 C-138.35424352 194.23215304 -95.44546912 197.94509473 -58.2265625 203.5703125 C-48.5496348 204.94169347 -38.95166847 205.21513775 -29.1875 205.25 C-27.22067261 205.26377686 -27.22067261 205.26377686 -25.21411133 205.27783203 C-13.94518181 205.24218214 -3.55136318 204.12194369 6.9375 199.875 C7.7018335 199.57005615 8.46616699 199.2651123 9.25366211 198.95092773 C25.61357697 192.19837416 38.79752535 182.53450231 46 166 C49.20367251 158.05876464 49.43477902 150.5505624 49.3125 142.0625 C49.2966687 140.1441333 49.2966687 140.1441333 49.28051758 138.18701172 C49.13918075 128.02738787 48.53617958 118.04368838 47 108 C46.72542969 106.16115234 46.72542969 106.16115234 46.4453125 104.28515625 C44.58596694 93.7144324 41.19207454 83.62159822 37.81494141 73.45507812 C37.12071205 71.363655 36.43737983 69.26934705 35.76171875 67.171875 C34.40339691 62.99726423 33.01238202 58.89747378 31.25 54.875 C30 52 30 52 30 50 C29.34 50 28.68 50 28 50 C27.58492188 49.08863281 27.16984375 48.17726562 26.7421875 47.23828125 C22.74481791 38.73732009 18.14543836 30.82022471 12.9375 23 C12.3604834 22.12899658 11.7834668 21.25799316 11.18896484 20.3605957 C7.86548519 15.44879209 4.40375655 11.06958799 0.18969727 6.88671875 C-1 5 -1 5 -0.68774414 2.26953125 C-0.46078857 1.52058594 -0.23383301 0.77164063 0 0 Z " fill="#55C8EE" transform="translate(426,110)"/>
<path d="M0 0 C1.11632812 -0.00128906 2.23265625 -0.00257813 3.3828125 -0.00390625 C5.11917969 0.00189453 5.11917969 0.00189453 6.890625 0.0078125 C8.60378906 0.00201172 8.60378906 0.00201172 10.3515625 -0.00390625 C16.69962667 0.00339038 22.84808416 0.28934426 29.140625 1.1328125 C25.80752004 4.46591746 21.59753451 4.25429491 17.05859375 4.44921875 C16.12724609 4.49111328 15.19589844 4.53300781 14.23632812 4.57617188 C13.27662109 4.61548828 12.31691406 4.65480469 11.328125 4.6953125 C10.34908203 4.73849609 9.37003906 4.78167969 8.36132812 4.82617188 C5.95455473 4.9318351 3.54768517 5.03393577 1.140625 5.1328125 C1.05498291 5.84824219 0.96934082 6.56367188 0.88110352 7.30078125 C0.48865657 10.57815049 0.09589318 13.85548174 -0.296875 17.1328125 C-0.43158203 18.25816406 -0.56628906 19.38351563 -0.70507812 20.54296875 C-1.40822123 26.40821128 -2.1196004 32.27207393 -2.859375 38.1328125 C-2.05113281 37.85566406 -1.24289063 37.57851562 -0.41015625 37.29296875 C1.19279297 36.74962891 1.19279297 36.74962891 2.828125 36.1953125 C3.88386719 35.83566406 4.93960938 35.47601563 6.02734375 35.10546875 C10.23601572 33.7905888 14.04201878 32.99554799 18.453125 33.0703125 C20.2784375 33.10125 20.2784375 33.10125 22.140625 33.1328125 C22.140625 33.7928125 22.140625 34.4528125 22.140625 35.1328125 C20.9340625 35.66390625 19.7275 36.195 18.484375 36.7421875 C16.86974689 37.45562783 15.25516608 38.16917522 13.640625 38.8828125 C12.84914062 39.23085937 12.05765625 39.57890625 11.2421875 39.9375 C9.65071498 40.64192226 8.06470248 41.35880862 6.484375 42.08789062 C4.140625 43.1328125 4.140625 43.1328125 1.796875 43.97460938 C-0.39461082 44.83750692 -2.0663891 45.602794 -3.859375 47.1328125 C-5.00427051 50.10793678 -4.88669403 52.97484935 -4.859375 56.1328125 C-4.95890758 58.17607906 -5.06470801 60.21904704 -5.17578125 62.26171875 C-5.26103285 64.4061244 -5.34301806 66.55066218 -5.421875 68.6953125 C-5.46505859 69.79939453 -5.50824219 70.90347656 -5.55273438 72.04101562 C-5.65781887 74.73818435 -5.75996913 77.43542953 -5.859375 80.1328125 C1.34183747 78.09698101 7.74780925 76.02409165 14.140625 72.1328125 C15.130625 72.1328125 16.120625 72.1328125 17.140625 72.1328125 C15.81826493 76.0998927 13.37531121 77.16162081 9.953125 79.1953125 C9.10524414 79.7222168 9.10524414 79.7222168 8.24023438 80.25976562 C2.6610762 83.64049263 -2.1353443 85.41867343 -8.671875 85.3203125 C-10.10466797 85.31064453 -10.10466797 85.31064453 -11.56640625 85.30078125 C-13.859375 85.1328125 -13.859375 85.1328125 -14.859375 84.1328125 C-16.16446712 58.72904265 -12.64932073 33.18948429 -8.859375 8.1328125 C-11.499375 8.4628125 -14.139375 8.7928125 -16.859375 9.1328125 C-17.189375 7.4828125 -17.519375 5.8328125 -17.859375 4.1328125 C-11.76075974 1.3824566 -6.76478007 0.00758626 0 0 Z " fill="#5ECAEE" transform="translate(119.859375,189.8671875)"/>
<path d="M0 0 C3.0625 0.1875 3.0625 0.1875 5.0625 2.1875 C5.29296875 5.234375 5.29296875 5.234375 5.25 8.9375 C5.24355469 10.14921875 5.23710937 11.3609375 5.23046875 12.609375 C5.07662006 15.88670991 4.67954543 18.96899104 4.0625 22.1875 C5.0834375 21.94 5.0834375 21.94 6.125 21.6875 C9.4789822 21.11660941 12.66639805 21.12090977 16.0625 21.1875 C16.0625 22.1775 16.0625 23.1675 16.0625 24.1875 C11.45641469 26.88374506 8.34924382 27.33837022 3.0625 27.1875 C2.92972656 28.48945313 2.79695313 29.79140625 2.66015625 31.1328125 C2.48186886 32.85938513 2.30347798 34.58594707 2.125 36.3125 C2.03798828 37.1684375 1.95097656 38.024375 1.86132812 38.90625 C1.15482339 45.70962893 1.15482339 45.70962893 0.5078125 49.05859375 C-0.20507374 54.06755761 -0.12193599 59.0724443 -0.125 64.125 C-0.14336914 65.71344727 -0.14336914 65.71344727 -0.16210938 67.33398438 C-0.1727521 73.02074686 0.1320169 77.82335131 2.0625 83.1875 C5.17602302 83.1875 7.30885556 82.92761749 9.5859375 80.69140625 C13.5332521 75.50141854 16.80400014 69.82632245 20.0625 64.1875 C20.3925 64.8475 20.7225 65.5075 21.0625 66.1875 C17.99799387 73.88332742 14.18544909 80.65354364 7.875 86.0625 C3.61072929 87.76820828 -0.41738045 87.99821518 -4.9375 87.1875 C-9.00766417 83.72786045 -10.65435915 79.13884148 -11.16113281 73.85644531 C-11.28218814 71.0258559 -11.31616759 68.2082095 -11.3125 65.375 C-11.31378906 64.33923828 -11.31507813 63.30347656 -11.31640625 62.23632812 C-11.15978507 50.36871381 -9.16865514 38.81798955 -6.9375 27.1875 C-8.85447937 27.32916357 -10.77107723 27.47599584 -12.6875 27.625 C-13.75484375 27.70621094 -14.8221875 27.78742188 -15.921875 27.87109375 C-18.84642379 28.10364459 -18.84642379 28.10364459 -21.265625 28.78515625 C-22.09320313 28.98431641 -22.09320313 28.98431641 -22.9375 29.1875 C-23.9375 28.1875 -23.9375 28.1875 -24.1875 25.75 C-24.105 24.904375 -24.0225 24.05875 -23.9375 23.1875 C-20.71138064 21.03675376 -19.83848481 20.93725294 -16.125 21 C-14.87783203 21.00966797 -14.87783203 21.00966797 -13.60546875 21.01953125 C-10.66584837 21.20460252 -7.83345644 21.6590408 -4.9375 22.1875 C-4.91244385 21.55658447 -4.8873877 20.92566895 -4.86157227 20.27563477 C-4.74595863 17.43353175 -4.62307684 14.59178917 -4.5 11.75 C-4.46068359 10.75677734 -4.42136719 9.76355469 -4.38085938 8.74023438 C-4.33896484 7.79599609 -4.29707031 6.85175781 -4.25390625 5.87890625 C-4.21724854 5.00435791 -4.18059082 4.12980957 -4.14282227 3.22875977 C-3.8152746 -0.0276327 -3.34670741 0.21361962 0 0 Z " fill="#5ECAEE" transform="translate(320.9375,184.8125)"/>
<path d="M0 0 C2.375 0.25 2.375 0.25 5 1 C8.64542425 5.94814342 7.29692869 13.29920411 6.5 19.0625 C5.94728518 23.41512917 5.90879373 27.62209923 6 32 C6.21914063 30.97261719 6.43828125 29.94523437 6.6640625 28.88671875 C9.00526933 18.45288754 11.87541036 6.61532749 21 0 C25.14224306 -0.57991403 26.48175489 -0.34549674 30 2 C30.35644531 4.3190918 30.35644531 4.3190918 30.328125 7.19921875 C30.32296875 8.24400391 30.3178125 9.28878906 30.3125 10.36523438 C30.291875 11.46158203 30.27125 12.55792969 30.25 13.6875 C30.24484375 14.76451172 30.2396875 15.84152344 30.234375 16.95117188 C30.19257378 21.2122834 30.09597622 25.33329495 29.48828125 29.5546875 C28.78483483 34.51820541 28.89516344 39.43201586 28.9375 44.4375 C28.94201172 45.45521484 28.94652344 46.47292969 28.95117188 47.52148438 C28.96287563 50.01438509 28.97927152 52.50716074 29 55 C32.19873677 53.66614931 33.57129063 52.60309716 35.0703125 49.48046875 C35.40933594 48.78759766 35.74835938 48.09472656 36.09765625 47.38085938 C36.43667969 46.65705078 36.77570313 45.93324219 37.125 45.1875 C37.47175781 44.47529297 37.81851563 43.76308594 38.17578125 43.02929688 C39.92661707 39.40352385 41.56512365 35.76470136 43 32 C44.67415683 37.10385312 42.98312925 41.18287186 41 46 C35.54570074 55.96953284 35.54570074 55.96953284 31 59 C27.8125 59.125 27.8125 59.125 25 59 C24.35165346 57.730447 23.70642185 56.45930294 23.0625 55.1875 C22.70285156 54.47980469 22.34320313 53.77210938 21.97265625 53.04296875 C19.67128892 48.20917311 19.80868528 43.99285618 19.8125 38.75 C19.81185547 37.83645752 19.81121094 36.92291504 19.81054688 35.98168945 C19.89032778 25.27200965 20.90074288 14.64612983 22 4 C12.11444811 13.07417493 10.10501103 26.07473353 9.5 38.875 C9.47647461 39.62547607 9.45294922 40.37595215 9.42871094 41.14916992 C9.28004989 44.92080325 9.14076735 46.78884898 7 50 C4.625 50.5 4.625 50.5 2 50 C-0.67456745 47.34011117 -1.89382443 45.67386809 -2.48583984 41.91650391 C-2.47762207 40.78132324 -2.4694043 39.64614258 -2.4609375 38.4765625 C-2.45835937 37.21408691 -2.45578125 35.95161133 -2.453125 34.65087891 C-2.42818463 33.30889835 -2.40212536 31.96693817 -2.375 30.625 C-2.36132206 29.26351556 -2.3483018 27.90202435 -2.3359375 26.54052734 C-2.21875806 17.58034104 -1.72977589 8.80332375 0 0 Z " fill="#5FCAEE" transform="translate(258,222)"/>
<path d="M0 0 C1.9701157 3.58202855 2.29497141 6.58477284 1.375 10.5 C-3.11848827 19.40219373 -11.67131535 24.8771847 -20.625 28.5 C-20.65190844 31.12506802 -20.67179404 33.74986173 -20.6875 36.375 C-20.69587891 37.12136719 -20.70425781 37.86773437 -20.71289062 38.63671875 C-20.83188084 42.69845578 -20.83188084 42.69845578 -19.625 46.5 C-10.46757435 47.06065871 -5.37358488 45.2183854 1.5 39.1875 C4.31943594 36.56516748 6.9609955 33.93715056 9.375 30.9375 C10.035 30.133125 10.695 29.32875 11.375 28.5 C12.035 28.5 12.695 28.5 13.375 28.5 C10.16244009 38.03569371 0.72351704 46.41431709 -7.875 51.375 C-14.19375597 53.27062679 -19.99925556 53.62531904 -26.125 51 C-31.09443539 46.03056461 -31.8054711 41.01798449 -32 34.25 C-31.71715425 23.61254033 -29.24292715 11.69865669 -21.88671875 3.58203125 C-16.03896804 -1.68970976 -7.25363585 -4.14493477 0 0 Z " fill="#5ECAEE" transform="translate(235.625,220.5)"/>
<path d="M0 0 C2.5 0.25 2.5 0.25 4.5 2.25 C4.30043457 7.43870129 3.00866049 11.87536579 1.4375 16.8125 C-0.76857676 24.27612466 -1.55607493 31.50545051 -0.5 39.25 C0.7160151 41.65751974 0.7160151 41.65751974 2.5 43.25 C5.58673253 43.88137711 7.54108416 43.76508643 10.33984375 42.26171875 C14.3675104 39.51132482 17.72096056 36.79958363 19.1875 32 C19.290625 31.4225 19.39375 30.845 19.5 30.25 C18.613125 30.353125 17.72625 30.45625 16.8125 30.5625 C13.5 30.25 13.5 30.25 10.75 28 C6.4351505 22.72629506 6.05140914 18.85784804 6.19140625 12.11328125 C6.5 9.25 6.5 9.25 8.0625 6 C10.5 4.25 10.5 4.25 13.875 3.625 C18.4713302 4.41747072 20.33186679 5.86083425 23.5 9.25 C26.28202364 14.56113604 25.68725697 20.40342138 25.5 26.25 C26.03109375 25.97285156 26.5621875 25.69570312 27.109375 25.41015625 C27.81578125 25.04792969 28.5221875 24.68570313 29.25 24.3125 C29.94609375 23.95285156 30.6421875 23.59320313 31.359375 23.22265625 C33.40224433 22.29441818 35.31115376 21.71833422 37.5 21.25 C33.82583472 25.2581803 30.35653496 27.77591615 25.5 30.25 C24.84 30.25 24.18 30.25 23.5 30.25 C23.2215625 31.4875 23.2215625 31.4875 22.9375 32.75 C20.49609067 38.69430097 15.9285911 43.7757017 10.5 47.25 C6.50238619 48.31555359 2.70669644 48.54497024 -1.3125 47.5625 C-5.73352195 44.90988683 -7.94790786 42.13842695 -9.5 37.25 C-10.69593078 24.91302989 -9.02757359 13.77473277 -4.5 2.25 C-2.5 0.25 -2.5 0.25 0 0 Z " fill="#72D0F0" transform="translate(355.5,224.75)"/>
<path d="M0 0 C2.77871234 2.55934031 3.91313862 4.02280949 4.25 7.8125 C4.1675 8.534375 4.085 9.25625 4 10 C3.62875 9.505 3.2575 9.01 2.875 8.5 C0.25305607 6.40244486 -1.73842472 6.78256165 -5 7 C-6.61327421 10.22654842 -6.44057865 13.50167404 -6 17 C-3.47450362 22.51017393 1.04956893 25.66109431 5.7578125 29.265625 C8 31 8 31 10 33 C12.39682493 33.29467517 12.39682493 33.29467517 15 32 C18.22059634 28.51447029 20.6940294 24.48123302 23.25 20.5 C24.11625 19.2625 24.11625 19.2625 25 18 C25.66 18 26.32 18 27 18 C24.35833687 25.68483819 19.88663076 31.52406441 14 37 C14.33 37.928125 14.66 38.85625 15 39.8125 C16.73217622 45.9436561 16.8915784 52.32526479 14.875 58.375 C11.89465884 62.54747762 8.91120954 65.36293015 4 67 C-0.5789509 67 -3.46306501 65.33201033 -6.875 62.375 C-8.66027421 58.60608777 -8.62050997 55.08680703 -8 51 C-5.37653293 45.42513247 -0.96105098 42.39567082 4 39 C2.46604208 35.0117094 -0.02783904 33.18248224 -3.375 30.625 C-12.58620918 23.16428273 -12.58620918 23.16428273 -13.3984375 16.953125 C-13.86149877 7.20678781 -13.86149877 7.20678781 -10.625 3.25 C-6.92452917 0.07816786 -4.88597517 -0.58631702 0 0 Z " fill="#62CBEF" transform="translate(404,218)"/>
<path d="M0 0 C2.4375 0.0625 2.4375 0.0625 5 1 C7.73246505 4.7739837 8.86450002 8.53903998 10.0078125 13.0234375 C10.26424026 14.02003891 10.26424026 14.02003891 10.52584839 15.03677368 C10.88415307 16.4359825 11.23859186 17.8361864 11.58935547 19.23730469 C12.12217652 21.36373182 12.6674429 23.48665975 13.21484375 25.609375 C14.77336109 31.72452352 16.19558629 37.73842762 17 44 C17.66 44 18.32 44 19 44 C19.15855469 43.44054687 19.31710938 42.88109375 19.48046875 42.3046875 C20.95546996 37.23589881 22.62631146 32.31112209 24.5 27.375 C27.28607581 19.73223011 28.7196693 12.01507839 30 4 C32.475 4.495 32.475 4.495 35 5 C35.10957031 5.86882812 35.21914062 6.73765625 35.33203125 7.6328125 C36.31024582 16.28123824 36.31024582 16.28123824 40 24 C42.07690578 24.96044102 42.07690578 24.96044102 44 25 C44.495 23.515 44.495 23.515 45 22 C45.66 22 46.32 22 47 22 C45.84826645 24.46800047 44.95216435 26.04783565 43 28 C40.125 28.4375 40.125 28.4375 37 28 C33.95300596 25.03764468 32.3694303 21.99417171 31 18 C28.99352701 21.52012805 28.18260409 25.07324594 27.25 29 C25.49969581 35.99949827 23.21212842 44.78787158 18 50 C15.625 50.375 15.625 50.375 13 50 C11.375 47.9375 11.375 47.9375 10 45 C9.505 43.989375 9.01 42.97875 8.5 41.9375 C5.29632737 34.16191956 3.88612296 25.72686338 2.3125 17.5 C2.18101562 16.81752197 2.04953125 16.13504395 1.9140625 15.43188477 C1.31589509 12.19944921 1 9.30494954 1 6 C0.01 6.33 -0.98 6.66 -2 7 C-2.125 4.625 -2.125 4.625 -2 2 C-1.34 1.34 -0.68 0.68 0 0 Z " fill="#5CCAEE" transform="translate(151,223)"/>
<path d="M0 0 C2.5 0.25 2.5 0.25 4.5 2.25 C4.30043457 7.43870129 3.00866049 11.87536579 1.4375 16.8125 C-0.77529604 24.29885741 -2.84200336 34.31194546 0.65234375 41.6796875 C2.46582467 43.48860606 2.46582467 43.48860606 5.3203125 43.75 C9.26870578 43.12912243 11.239166 41.6974802 14.375 39.25 C15.34179688 38.5075 16.30859375 37.765 17.3046875 37 C18.02914063 36.4225 18.75359375 35.845 19.5 35.25 C19.83 36.24 20.16 37.23 20.5 38.25 C19.28070272 39.55098717 18.04907548 40.84042437 16.8125 42.125 C15.78576172 43.20394531 15.78576172 43.20394531 14.73828125 44.3046875 C11.65748102 46.98224162 9.08139897 48.1536335 5 48.40234375 C0.59346392 48.02365706 -1.88706487 47.70970135 -5.5 45 C-10.98747786 37.45471794 -10.43820028 28.1989873 -9.5 19.25 C-5.96649719 0.59664972 -5.96649719 0.59664972 0 0 Z " fill="#62CBEF" transform="translate(355.5,224.75)"/>
<path d="M0 0 C0 0.66 0 1.32 0 2 C0.99 2.33 1.98 2.66 3 3 C3.39787725 6.24933088 3.62787193 8.88378324 1.98046875 11.8125 C-1.8273369 16.51194059 -6.63844867 20.21199331 -12 23 C-12.99 23 -13.98 23 -15 23 C-15.43059881 15.3927544 -14.79602429 7.33969567 -9.75 1.3125 C-6.32527083 -0.32202983 -3.74897265 -0.29403707 0 0 Z " fill="#F6FCFD" transform="translate(230,222)"/>
<path d="M0 0 C3 1 3 1 4.16796875 2.78515625 C5.94333196 7.51112311 5.73096392 12.36403314 3.6875 16.9375 C1.40559416 19.72649603 -0.29601914 20.89287248 -3.875 21.4375 C-7 21 -7 21 -9.9375 18.9375 C-12 16 -12 16 -12.125 12.5 C-10.15097819 6.35859882 -5.49106792 3.10364709 0 0 Z " fill="#F5FBFD" transform="translate(410,259)"/>
<path d="M0 0 C3 0.5625 3 0.5625 4.875 2.375 C6.92333564 8.17861764 6.72154092 14.66205735 5 20.5625 C2.8125 20.9375 2.8125 20.9375 0 20.5625 C-4.50945133 15.84807361 -6.33019013 13.09795702 -6.2109375 6.5390625 C-6 4.5625 -6 4.5625 -4.875 2.0625 C-3 0.5625 -3 0.5625 0 0 Z " fill="#F4FBFD" transform="translate(372,231.4375)"/>
<path d="M0 0 C1.65 0.33 3.3 0.66 5 1 C5.10957031 1.86882812 5.21914062 2.73765625 5.33203125 3.6328125 C6.31024582 12.28123824 6.31024582 12.28123824 10 20 C12.07690578 20.96044102 12.07690578 20.96044102 14 21 C14.33 20.01 14.66 19.02 15 18 C15.66 18 16.32 18 17 18 C15.84826645 20.46800047 14.95216435 22.04783565 13 24 C10.125 24.4375 10.125 24.4375 7 24 C3.95300596 21.03764468 2.3694303 17.99417171 1 14 C-1.11503791 17.69655275 -2.08053239 21.65723434 -3.125 25.75 C-3.30675781 26.44738281 -3.48851562 27.14476562 -3.67578125 27.86328125 C-4.12116452 29.57449065 -4.56112516 31.28710983 -5 33 C-7 30 -7 30 -6.74609375 27.19921875 C-6.00026779 24.00114826 -5.08917232 20.93125932 -4.0625 17.8125 C-2.20191283 11.92627878 -0.92871824 6.09776845 0 0 Z " fill="#6ACEEF" transform="translate(181,227)"/>
<path d="M0 0 C1.9701157 3.58202855 2.29497141 6.58477284 1.375 10.5 C-2.61271018 18.40018055 -10.41457641 24.52750921 -18.625 27.5 C-18.625 26.84 -18.625 26.18 -18.625 25.5 C-19.615 25.5 -20.605 25.5 -21.625 25.5 C-21.625 23.19 -21.625 20.88 -21.625 18.5 C-21.295 18.5 -20.965 18.5 -20.625 18.5 C-20.625 20.48 -20.625 22.46 -20.625 24.5 C-14.33592709 21.69237817 -6.84447999 17.93895998 -3.625 11.5 C-3.58477609 9.1670134 -3.58179753 6.83293334 -3.625 4.5 C-4.285 4.17 -4.945 3.84 -5.625 3.5 C-5.625 2.84 -5.625 2.18 -5.625 1.5 C-6.32367188 1.644375 -7.02234375 1.78875 -7.7421875 1.9375 C-8.65226562 2.123125 -9.56234375 2.30875 -10.5 2.5 C-11.85738281 2.7784375 -11.85738281 2.7784375 -13.2421875 3.0625 C-15.625 3.5 -15.625 3.5 -17.625 3.5 C-19.42560998 5.05683115 -19.42560998 5.05683115 -21.25 7 C-21.88164062 7.6496875 -22.51328125 8.299375 -23.1640625 8.96875 C-23.64617187 9.4740625 -24.12828125 9.979375 -24.625 10.5 C-24.625 6.5234755 -23.24488497 5.4109833 -20.625 2.5 C-15.22484404 -2.22513647 -6.35177466 -3.62958552 0 0 Z " fill="#6CCEEF" transform="translate(235.625,220.5)"/>
<path d="M0 0 C6.625 -0.25 6.625 -0.25 10 2 C10.3984375 4.49609375 10.3984375 4.49609375 10.375 7.4375 C10.38273437 8.40558594 10.39046875 9.37367187 10.3984375 10.37109375 C10 13 10 13 8.73828125 14.8359375 C5.64207632 16.90935114 2.63105553 16.1785765 -1 16 C-2.03038433 12.0585998 -1.87693282 9.16384848 -1.0625 5.1875 C-0.86785156 4.21167969 -0.67320312 3.23585938 -0.47265625 2.23046875 C-0.31667969 1.49441406 -0.16070312 0.75835937 0 0 Z " fill="#AAE1F5" transform="translate(284,72)"/>
<path d="M0 0 C6.27941176 2.41911765 6.27941176 2.41911765 8 5 C7.8792254 9.46866033 5.8258689 12.63950726 3 16 C0.0625 17.0625 0.0625 17.0625 -3 17 C-5.875 15.5625 -5.875 15.5625 -8 14 C-6.6744419 10.37723685 -5.05653045 7.36494652 -2.875 4.1875 C-2.33617187 3.39730469 -1.79734375 2.60710937 -1.2421875 1.79296875 C-0.83226562 1.20128906 -0.42234375 0.60960938 0 0 Z " fill="#F6FBFD" transform="translate(354,97)"/>
<path d="M0 0 C3 0.4375 3 0.4375 6 2.4375 C5.1863354 12.03874224 5.1863354 12.03874224 2 15.4375 C-1.5625 15.9375 -1.5625 15.9375 -5 15.4375 C-7 12.4375 -7 12.4375 -6.8125 9.0625 C-4.9428147 0.72082714 -4.9428147 0.72082714 0 0 Z " fill="#F4FBFD" transform="translate(315,78.5625)"/>
<path d="M0 0 C0.33 0.66 0.66 1.32 1 2 C0.030625 2.45375 -0.93875 2.9075 -1.9375 3.375 C-5.07079582 4.65786221 -5.07079582 4.65786221 -6 7 C-6.50872093 13.10465114 -6.06705978 16.11952826 -2 21 C-1.01 21.66 -0.02 22.32 1 23 C1 23.66 1 24.32 1 25 C-1.6875 25.3125 -1.6875 25.3125 -5 25 C-8.10164769 22.44975635 -9.72566416 20.82300753 -11 17 C-11.46964549 11.59522726 -11.81806748 6.70158035 -9.4375 1.75 C-6.17715224 -0.5907625 -3.9200085 -0.37692389 0 0 Z " fill="#63CBEF" transform="translate(373,229)"/>
<path d="M0 0 C0.99 0.33 1.98 0.66 3 1 C4.16796875 3.65234375 4.16796875 3.65234375 5.1875 6.9375 C5.53167969 8.01902344 5.87585938 9.10054687 6.23046875 10.21484375 C7 13 7 13 7 15 C6.34 15 5.68 15 5 15 C4.01 12.03 3.02 9.06 2 6 C1.67 8.97 1.34 11.94 1 15 C-2.23475448 13.38262276 -3.70572021 12.52370777 -6 10 C-5.67 12.64 -5.34 15.28 -5 18 C-7 17 -7 17 -8.0703125 14.34765625 C-8.59238281 12.72150391 -8.59238281 12.72150391 -9.125 11.0625 C-9.47820312 9.98097656 -9.83140625 8.89945313 -10.1953125 7.78515625 C-11 5 -11 5 -11 3 C-6.7257442 4.5830577 -4.73468206 7.50568404 -2 11 C-1.34 7.37 -0.68 3.74 0 0 Z " fill="#9ADCF3" transform="translate(207,77)"/>
<path d="M0 0 C5.18742743 2.59371371 6.13253595 5.0615897 9 10 C9.33 6.7 9.66 3.4 10 0 C10.66 0 11.32 0 12 0 C12 5.28 12 10.56 12 16 C8.33838422 14.77946141 7.83729526 13.63217696 5.8125 10.4375 C5.28269531 9.61121094 4.75289063 8.78492187 4.20703125 7.93359375 C3.80871094 7.29550781 3.41039062 6.65742187 3 6 C2.67 8.97 2.34 11.94 2 15 C1.34 15 0.68 15 0 15 C0 10.05 0 5.1 0 0 Z " fill="#99DCF3" transform="translate(255,70)"/>
<path d="M0 0 C0 0.33 0 0.66 0 1 C-1.65 1.33 -3.3 1.66 -5 2 C-5 2.66 -5 3.32 -5 4 C-6.0828125 4.928125 -6.0828125 4.928125 -7.1875 5.875 C-13.42161966 11.86117172 -15.49362405 21.78340393 -17 30 C-17.99 30 -18.98 30 -20 30 C-19.42542307 20.04066646 -15.22655095 9.8334028 -9 2 C-5.5647952 -0.29013653 -4.014669 -0.17842973 0 0 Z " fill="#6BCEEF" transform="translate(285,222)"/>
<path d="M0 0 C5 1 5 1 6 2 C6.23529412 9.29411765 6.23529412 9.29411765 5 13 C2.69 13 0.38 13 -2 13 C-1.34 8.71 -0.68 4.42 0 0 Z " fill="#F9FCFE" transform="translate(286,73)"/>
<path d="M0 0 C6.27941176 2.41911765 6.27941176 2.41911765 8 5 C7.8792254 9.46866033 5.8258689 12.63950726 3 16 C0.0625 17.0625 0.0625 17.0625 -3 17 C-5.875 15.5625 -5.875 15.5625 -8 14 C-6.6744419 10.37723685 -5.05653045 7.36494652 -2.875 4.1875 C-2.33617187 3.39730469 -1.79734375 2.60710937 -1.2421875 1.79296875 C-0.83226562 1.20128906 -0.42234375 0.60960938 0 0 Z M1 2 C-0.03613033 3.23734984 -1.05347802 4.49044637 -2.0625 5.75 C-2.63097656 6.44609375 -3.19945312 7.1421875 -3.78515625 7.859375 C-5.24492279 9.92531301 -5.24492279 9.92531301 -4.68359375 12.265625 C-4.45800781 12.83796875 -4.23242188 13.4103125 -4 14 C-2.35 14.33 -0.7 14.66 1 15 C4.90668905 11.22716225 4.90668905 11.22716225 6.0625 6.25 C4.77142027 3.5159488 3.68684622 3.19415388 1 2 Z " fill="#97DBF3" transform="translate(354,97)"/>
<path d="M0 0 C1.67415683 5.10385312 -0.01687075 9.18287186 -2 14 C-7.45429926 23.96953284 -7.45429926 23.96953284 -12 27 C-15.1875 27.125 -15.1875 27.125 -18 27 C-18 26.67 -18 26.34 -18 26 C-16.35 26 -14.7 26 -13 26 C-13.33 25.01 -13.66 24.02 -14 23 C-13.42507813 22.83113281 -12.85015625 22.66226562 -12.2578125 22.48828125 C-8.78044285 20.19610506 -7.60825267 16.8879615 -5.875 13.1875 C-5.52824219 12.47529297 -5.18148438 11.76308594 -4.82421875 11.02929688 C-3.07338293 7.40352385 -1.43487635 3.76470136 0 0 Z " fill="#76D1F0" transform="translate(301,254)"/>
<path d="M0 0 C3 0.4375 3 0.4375 6 2.4375 C5.1863354 12.03874224 5.1863354 12.03874224 2 15.4375 C-1.5625 15.9375 -1.5625 15.9375 -5 15.4375 C-7 12.4375 -7 12.4375 -6.8125 9.0625 C-4.9428147 0.72082714 -4.9428147 0.72082714 0 0 Z M-2.625 2.4375 C-4.8396161 5.65875979 -4.81487273 8.54982743 -5 12.4375 C-4.34 13.0975 -3.68 13.7575 -3 14.4375 C-0.44539786 14.51022562 -0.44539786 14.51022562 2 13.4375 C3.92003761 10.14600695 4.40811764 7.21258813 4 3.4375 C3.34 2.7775 2.68 2.1175 2 1.4375 C-0.89217787 1.17545129 -0.89217787 1.17545129 -2.625 2.4375 Z " fill="#8FD8F2" transform="translate(315,78.5625)"/>
<path d="M0 0 C0.66 0.33 1.32 0.66 2 1 C2.51953125 3.58203125 2.51953125 3.58203125 2.8125 6.8125 C2.92207031 7.87082031 3.03164062 8.92914063 3.14453125 10.01953125 C2.9799118 13.41425128 2.39915871 14.64017176 0 17 C-2.88834165 17.50545979 -4.30798538 17.46958135 -6.75 15.8125 C-9.60967455 11.6659719 -9.09531536 6.8610835 -9 2 C-6.50494038 4.49505962 -6.64051624 5.67328888 -6.375 9.125 C-6.30023438 10.03507812 -6.22546875 10.94515625 -6.1484375 11.8828125 C-6.07496094 12.93082031 -6.07496094 12.93082031 -6 14 C-4.02 13.67 -2.04 13.34 0 13 C0 8.71 0 4.42 0 0 Z " fill="#8BD7F2" transform="translate(236,71)"/>
<path d="M0 0 C4.20393865 0.76836694 5.52187506 2.54832597 8 6 C7.4225 5.67 6.845 5.34 6.25 5 C3.80116138 3.72924102 3.80116138 3.72924102 0 4 C0 7.10551666 0.5393715 8.35261084 2 11 C1.1028125 10.2265625 1.1028125 10.2265625 0.1875 9.4375 C-0.534375 8.963125 -1.25625 8.48875 -2 8 C-2.99 8.33 -3.98 8.66 -5 9 C-4.40072174 12.35595828 -3.15377564 14.37801226 -1 17 C-3.95409701 15.62845496 -6.44008376 14.01136276 -9 12 C-7.55575365 8.76138697 -5.74227753 6.38030837 -3.375 3.75 C-2.74335938 3.04359375 -2.11171875 2.3371875 -1.4609375 1.609375 C-0.97882813 1.07828125 -0.49671875 0.5471875 0 0 Z " fill="#8BD7F2" transform="translate(376,114)"/>
<path d="M0 0 C0.33 0.66 0.66 1.32 1 2 C-2.35574045 10.42719781 -6.53668547 18.88271185 -15 23 C-15.66 23 -16.32 23 -17 23 C-17.33 22.01 -17.66 21.02 -18 20 C-16.989375 19.71125 -15.97875 19.4225 -14.9375 19.125 C-7.53188749 15.97686513 -3.67484556 6.76171584 0 0 Z " fill="#7ED3F0" transform="translate(341,249)"/>
<path d="M0 0 C0.66 0.33 1.32 0.66 2 1 C-5.59 8.59 -13.18 16.18 -21 24 C-21 19.65714438 -18.34524033 17.73391876 -15.5 14.75 C-14.95625732 14.17024414 -14.41251465 13.59048828 -13.85229492 12.99316406 C-9.79552731 8.7153143 -5.55600073 4.74465813 -1 1 C-0.67 0.67 -0.34 0.34 0 0 Z " fill="#73D0F0" transform="translate(174,350)"/>
<path d="M0 0 C0.66 0 1.32 0 2 0 C-0.77898389 8.08431676 -5.24838784 13.86332677 -12 19 C-12 18.34 -12 17.68 -12 17 C-12.99 16.67 -13.98 16.34 -15 16 C-14.09894531 15.61972656 -13.19789063 15.23945313 -12.26953125 14.84765625 C-8.61427393 12.78202099 -7.0451847 10.87559944 -4.6875 7.4375 C-4.01074219 6.46683594 -3.33398438 5.49617187 -2.63671875 4.49609375 C-1.01812264 2.13330169 -1.01812264 2.13330169 0 0 Z " fill="#84D5F1" transform="translate(429,236)"/>
<path d="M0 0 C2 3 2 3 1.64453125 5.78515625 C1.36996094 6.86667969 1.09539062 7.94820312 0.8125 9.0625 C0.52375 10.21234375 0.235 11.3621875 -0.0625 12.546875 C-1.28776572 17.05993705 -2.58166076 21.54379942 -4 26 C-6 23 -6 23 -5.75 20.2265625 C-4.97294347 16.88360054 -4.04153145 13.6451024 -3 10.375 C-1.36609557 5.22487871 -1.36609557 5.22487871 0 0 Z " fill="#87D6F2" transform="translate(180,234)"/>
<path d="M0 0 C0.33 0.66 0.66 1.32 1 2 C1.66 2.33 2.32 2.66 3 3 C1.75146327 3.79397239 0.50109957 4.58507217 -0.75 5.375 C-1.44609375 5.81585938 -2.1421875 6.25671875 -2.859375 6.7109375 C-5 8 -5 8 -7.21875 9 C-9.30322724 9.89538189 -9.30322724 9.89538189 -9.75 12.625 C-9.8325 13.40875 -9.915 14.1925 -10 15 C-10.66 13.68 -11.32 12.36 -12 11 C-8.42270128 6.33867137 -4.89132699 3.26088466 0 0 Z " fill="#7CD3F1" transform="translate(409,256)"/>
<path d="M0 0 C1.66611905 -0.042721 3.33382885 -0.04063832 5 0 C6 1 6 1 6.0625 3.5625 C6.041875 4.366875 6.02125 5.17125 6 6 C3.625 6.625 3.625 6.625 1 7 C0.34 6.34 -0.32 5.68 -1 5 C-0.625 2.375 -0.625 2.375 0 0 Z " fill="#73D0F0" transform="translate(77,122)"/>
<path d="M0 0 C1.2065625 0.0309375 1.2065625 0.0309375 2.4375 0.0625 C3.0625 2.4375 3.0625 2.4375 3.4375 5.0625 C2.7775 5.7225 2.1175 6.3825 1.4375 7.0625 C-1.1875 6.6875 -1.1875 6.6875 -3.5625 6.0625 C-3.605221 4.39638095 -3.60313832 2.72867115 -3.5625 1.0625 C-2.5625 0.0625 -2.5625 0.0625 0 0 Z " fill="#6DCEEF" transform="translate(278.5625,30.9375)"/>
<path d="M0 0 C1.67542976 0.28604898 3.34385343 0.61781233 5 1 C5.625 2.875 5.625 2.875 6 5 C4 7 4 7 1.375 7.125 C0.59125 7.08375 -0.1925 7.0425 -1 7 C-1.04254356 5.00045254 -1.04080783 2.99958364 -1 1 C-0.67 0.67 -0.34 0.34 0 0 Z " fill="#6FCFF0" transform="translate(79,382)"/>
<path d="M0 0 C1.67542976 0.28604898 3.34385343 0.61781233 5 1 C5 2.98 5 4.96 5 7 C2.69 6.67 0.38 6.34 -2 6 C-1.125 1.125 -1.125 1.125 0 0 Z " fill="#73D1F0" transform="translate(49,324)"/>
<path d="M0 0 C1.66611905 -0.042721 3.33382885 -0.04063832 5 0 C6 1 6 1 6.0625 3.5625 C6.041875 4.366875 6.02125 5.17125 6 6 C3.625 6.625 3.625 6.625 1 7 C0.34 6.34 -0.32 5.68 -1 5 C-0.625 2.375 -0.625 2.375 0 0 Z " fill="#6ECFF0" transform="translate(37,277)"/>
<path d="M0 0 C1.67542976 0.28604898 3.34385343 0.61781233 5 1 C6.125 4.75 6.125 4.75 5 7 C3.33388095 7.042721 1.66617115 7.04063832 0 7 C-1 6 -1 6 -1.125 3.5 C-1 1 -1 1 0 0 Z " fill="#6BCEEF" transform="translate(36,244)"/>
<path d="M0 0 C0.38218767 1.65614657 0.71395102 3.32457024 1 5 C0 6 0 6 -2.5 6.125 C-5 6 -5 6 -6 5 C-6.04063832 3.33382885 -6.042721 1.66611905 -6 0 C-3.50907189 -1.24546405 -2.58919267 -0.7767578 0 0 Z " fill="#71D0F0" transform="translate(92,110)"/>
<path d="M0 0 C1.66611905 -0.042721 3.33382885 -0.04063832 5 0 C6 1 6 1 6.0625 3.5625 C6.041875 4.366875 6.02125 5.17125 6 6 C3.625 6.625 3.625 6.625 1 7 C0.34 6.34 -0.32 5.68 -1 5 C-0.625 2.375 -0.625 2.375 0 0 Z " fill="#6ECFF0" transform="translate(164,50)"/>
<path d="M0 0 C1.4540625 0.0309375 1.4540625 0.0309375 2.9375 0.0625 C3.0625 2.4375 3.0625 2.4375 2.9375 5.0625 C2.2775 5.7225 1.6175 6.3825 0.9375 7.0625 C-1.1875 6.6875 -1.1875 6.6875 -3.0625 6.0625 C-3.44468767 4.40635343 -3.77645102 2.73792976 -4.0625 1.0625 C-3.0625 0.0625 -3.0625 0.0625 0 0 Z " fill="#6FCFF0" transform="translate(198.0625,38.9375)"/>
<path d="M0 0 C0 1.65 0 3.3 0 5 C-2.375 5.625 -2.375 5.625 -5 6 C-5.66 5.34 -6.32 4.68 -7 4 C-7 2.68 -7 1.36 -7 0 C-4.3333581 -1.33332095 -2.83319697 -0.67102033 0 0 Z " fill="#6BCEEF" transform="translate(265,31)"/>
<path d="M0 0 C2.125 0.375 2.125 0.375 4 1 C4.38218767 2.65614657 4.71395102 4.32457024 5 6 C4 7 4 7 1.4375 7.0625 C0.2309375 7.0315625 0.2309375 7.0315625 -1 7 C-1.625 4.625 -1.625 4.625 -2 2 C-1.34 1.34 -0.68 0.68 0 0 Z " fill="#6ECFF0" transform="translate(90,394)"/>
<path d="M0 0 C1.67542976 0.28604898 3.34385343 0.61781233 5 1 C5.625 2.875 5.625 2.875 6 5 C5.34 5.66 4.68 6.32 4 7 C1.375 6.625 1.375 6.625 -1 6 C-1.042721 4.33388095 -1.04063832 2.66617115 -1 1 C-0.67 0.67 -0.34 0.34 0 0 Z " fill="#6ACEEF" transform="translate(70,368)"/>
<path d="M0 0 C1.67542976 0.28604898 3.34385343 0.61781233 5 1 C5 2.65 5 4.3 5 6 C2.625 6.625 2.625 6.625 0 7 C-0.66 6.34 -1.32 5.68 -2 5 C-1.46428571 1.46428571 -1.46428571 1.46428571 0 0 Z " fill="#6CCEEF" transform="translate(62,354)"/>
<path d="M0 0 C2.125 0.375 2.125 0.375 4 1 C4.38218767 2.65614657 4.71395102 4.32457024 5 6 C4 7 4 7 1.4375 7.0625 C0.2309375 7.0315625 0.2309375 7.0315625 -1 7 C-1.625 4.625 -1.625 4.625 -2 2 C-1.34 1.34 -0.68 0.68 0 0 Z " fill="#6CCEEF" transform="translate(55,339)"/>
<path d="M0 0 C1.2065625 0.0309375 1.2065625 0.0309375 2.4375 0.0625 C3.0625 2.4375 3.0625 2.4375 3.4375 5.0625 C2.7775 5.7225 2.1175 6.3825 1.4375 7.0625 C-0.6875 6.6875 -0.6875 6.6875 -2.5625 6.0625 C-2.94468767 4.40635343 -3.27645102 2.73792976 -3.5625 1.0625 C-2.5625 0.0625 -2.5625 0.0625 0 0 Z " fill="#6CCEEF" transform="translate(55.5625,164.9375)"/>
<path d="M0 0 C1.2065625 0.0309375 1.2065625 0.0309375 2.4375 0.0625 C3.0625 2.4375 3.0625 2.4375 3.4375 5.0625 C2.7775 5.7225 2.1175 6.3825 1.4375 7.0625 C-0.6875 6.6875 -0.6875 6.6875 -2.5625 6.0625 C-2.94468767 4.40635343 -3.27645102 2.73792976 -3.5625 1.0625 C-2.5625 0.0625 -2.5625 0.0625 0 0 Z " fill="#66CCEF" transform="translate(70.5625,135.9375)"/>
<path d="M0 0 C0 1.65 0 3.3 0 5 C-2.375 5.625 -2.375 5.625 -5 6 C-5.66 5.34 -6.32 4.68 -7 4 C-7 2.68 -7 1.36 -7 0 C-4.3333581 -1.33332095 -2.83319697 -0.67102033 0 0 Z " fill="#6BCEEF" transform="translate(388,70)"/>
<path d="M0 0 C1.67542976 0.28604898 3.34385343 0.61781233 5 1 C5.625 2.875 5.625 2.875 6 5 C5.34 5.66 4.68 6.32 4 7 C1.375 6.625 1.375 6.625 -1 6 C-1.042721 4.33388095 -1.04063832 2.66617115 -1 1 C-0.67 0.67 -0.34 0.34 0 0 Z " fill="#67CCEF" transform="translate(136,66)"/>
<path d="M0 0 C1.67542976 0.28604898 3.34385343 0.61781233 5 1 C5 2.65 5 4.3 5 6 C2.625 6.625 2.625 6.625 0 7 C-0.66 6.34 -1.32 5.68 -2 5 C-1.46428571 1.46428571 -1.46428571 1.46428571 0 0 Z " fill="#66CDEF" transform="translate(369,60)"/>
<path d="M0 0 C2.125 0.375 2.125 0.375 4 1 C4.38218767 2.65614657 4.71395102 4.32457024 5 6 C4 7 4 7 1.4375 7.0625 C0.2309375 7.0315625 0.2309375 7.0315625 -1 7 C-1.625 4.625 -1.625 4.625 -2 2 C-1.34 1.34 -0.68 0.68 0 0 Z " fill="#6DCFF0" transform="translate(151,57)"/>
<path d="M0 0 C1.2065625 0.0309375 1.2065625 0.0309375 2.4375 0.0625 C3.0625 2.4375 3.0625 2.4375 3.4375 5.0625 C2.7775 5.7225 2.1175 6.3825 1.4375 7.0625 C-0.6875 6.6875 -0.6875 6.6875 -2.5625 6.0625 C-2.94468767 4.40635343 -3.27645102 2.73792976 -3.5625 1.0625 C-2.5625 0.0625 -2.5625 0.0625 0 0 Z " fill="#69CEEF" transform="translate(213.5625,34.9375)"/>
<path d="M0 0 C1.67542976 0.28604898 3.34385343 0.61781233 5 1 C5.625 2.875 5.625 2.875 6 5 C5.34 5.66 4.68 6.32 4 7 C1.375 6.625 1.375 6.625 -1 6 C-1.042721 4.33388095 -1.04063832 2.66617115 -1 1 C-0.67 0.67 -0.34 0.34 0 0 Z " fill="#6ACDEF" transform="translate(227,32)"/>
<path d="M0 0 C2.125 0.375 2.125 0.375 4 1 C4.33 2.65 4.66 4.3 5 6 C3.02 6.33 1.04 6.66 -1 7 C-1.625 4.625 -1.625 4.625 -2 2 C-1.34 1.34 -0.68 0.68 0 0 Z " fill="#66CDEF" transform="translate(37,260)"/>
<path d="M0 0 C0.66 0 1.32 0 2 0 C3.7265625 2.3359375 3.7265625 2.3359375 5.625 5.375 C6.25664062 6.37273437 6.88828125 7.37046875 7.5390625 8.3984375 C9 11 9 11 9 13 C4.43545749 12.45660208 1.0271824 11.20536179 -3 9 C0 8 0 8 3.1875 9.4375 C4.115625 9.953125 5.04375 10.46875 6 11 C5.566875 10.37351562 5.13375 9.74703125 4.6875 9.1015625 C4.130625 8.28429687 3.57375 7.46703125 3 6.625 C2.443125 5.81289062 1.88625 5.00078125 1.3125 4.1640625 C0 2 0 2 0 0 Z " fill="#80D4F1" transform="translate(162,97)"/>
<path d="M0 0 C2.97 0.495 2.97 0.495 6 1 C5.67 2.65 5.34 4.3 5 6 C3.125 6.625 3.125 6.625 1 7 C0.34 6.34 -0.32 5.68 -1 5 C-0.625 2.375 -0.625 2.375 0 0 Z " fill="#64CCEF" transform="translate(308,36)"/>
<path d="M0 0 C2.125 0.375 2.125 0.375 4 1 C4.38218767 2.65614657 4.71395102 4.32457024 5 6 C4 7 4 7 1.4375 7.0625 C0.2309375 7.0315625 0.2309375 7.0315625 -1 7 C-1.625 4.625 -1.625 4.625 -2 2 C-1.34 1.34 -0.68 0.68 0 0 Z " fill="#68CDEF" transform="translate(244,30)"/>
<path d="M0 0 C1.67542976 0.28604898 3.34385343 0.61781233 5 1 C5 2.98 5 4.96 5 7 C3.33388095 7.042721 1.66617115 7.04063832 0 7 C-1 6 -1 6 -1.125 3.5 C-1 1 -1 1 0 0 Z " fill="#6DCFEF" transform="translate(48,180)"/>
<path d="M0 0 C2.5 0.125 2.5 0.125 3.5 1.125 C3.54063832 2.79117115 3.542721 4.45888095 3.5 6.125 C1.52 6.125 -0.46 6.125 -2.5 6.125 C-2.88218767 4.46885343 -3.21395102 2.80042976 -3.5 1.125 C-2.5 0.125 -2.5 0.125 0 0 Z " fill="#6CCEEF" transform="translate(356.5,52.875)"/>
<path d="M0 0 C1.2065625 0.0309375 1.2065625 0.0309375 2.4375 0.0625 C2.81968767 1.71864657 3.15145102 3.38707024 3.4375 5.0625 C2.4375 6.0625 2.4375 6.0625 -0.125 6.125 C-1.3315625 6.0940625 -1.3315625 6.0940625 -2.5625 6.0625 C-2.94468767 4.40635343 -3.27645102 2.73792976 -3.5625 1.0625 C-2.5625 0.0625 -2.5625 0.0625 0 0 Z " fill="#62CBEE" transform="translate(102.5625,406.9375)"/>
<path d="M0 0 C1.2065625 0.0309375 1.2065625 0.0309375 2.4375 0.0625 C2.81968767 1.71864657 3.15145102 3.38707024 3.4375 5.0625 C2.4375 6.0625 2.4375 6.0625 -0.125 6.125 C-1.3315625 6.0940625 -1.3315625 6.0940625 -2.5625 6.0625 C-2.94468767 4.40635343 -3.27645102 2.73792976 -3.5625 1.0625 C-2.5625 0.0625 -2.5625 0.0625 0 0 Z " fill="#68CDEF" transform="translate(42.5625,292.9375)"/>
<path d="M0 0 C1.2065625 0.0309375 1.2065625 0.0309375 2.4375 0.0625 C2.81968767 1.71864657 3.15145102 3.38707024 3.4375 5.0625 C2.4375 6.0625 2.4375 6.0625 -0.125 6.125 C-1.3315625 6.0940625 -1.3315625 6.0940625 -2.5625 6.0625 C-2.94468767 4.40635343 -3.27645102 2.73792976 -3.5625 1.0625 C-2.5625 0.0625 -2.5625 0.0625 0 0 Z " fill="#65CCEF" transform="translate(39.5625,227.9375)"/>
<path d="M0 0 C1.2065625 0.0309375 1.2065625 0.0309375 2.4375 0.0625 C2.81968767 1.71864657 3.15145102 3.38707024 3.4375 5.0625 C2.4375 6.0625 2.4375 6.0625 -0.125 6.125 C-1.3315625 6.0940625 -1.3315625 6.0940625 -2.5625 6.0625 C-2.94468767 4.40635343 -3.27645102 2.73792976 -3.5625 1.0625 C-2.5625 0.0625 -2.5625 0.0625 0 0 Z " fill="#69CDEF" transform="translate(41.5625,211.9375)"/>
<path d="M0 0 C1.2065625 0.0309375 1.2065625 0.0309375 2.4375 0.0625 C2.81968767 1.71864657 3.15145102 3.38707024 3.4375 5.0625 C2.4375 6.0625 2.4375 6.0625 -0.125 6.125 C-1.3315625 6.0940625 -1.3315625 6.0940625 -2.5625 6.0625 C-2.94468767 4.40635343 -3.27645102 2.73792976 -3.5625 1.0625 C-2.5625 0.0625 -2.5625 0.0625 0 0 Z " fill="#67CDEF" transform="translate(45.5625,195.9375)"/>
<path d="M0 0 C1.2065625 0.0309375 1.2065625 0.0309375 2.4375 0.0625 C2.81968767 1.71864657 3.15145102 3.38707024 3.4375 5.0625 C2.4375 6.0625 2.4375 6.0625 -0.125 6.125 C-1.3315625 6.0940625 -1.3315625 6.0940625 -2.5625 6.0625 C-2.94468767 4.40635343 -3.27645102 2.73792976 -3.5625 1.0625 C-2.5625 0.0625 -2.5625 0.0625 0 0 Z " fill="#69CDEF" transform="translate(62.5625,149.9375)"/>
<path d="M0 0 C1.67542976 0.28604898 3.34385343 0.61781233 5 1 C5 2.65 5 4.3 5 6 C3.34385343 6.38218767 1.67542976 6.71395102 0 7 C-1 6 -1 6 -1.125 3.5 C-1 1 -1 1 0 0 Z " fill="#66CDEF" transform="translate(408,89)"/>
<path d="M0 0 C1.2065625 0.0309375 1.2065625 0.0309375 2.4375 0.0625 C2.81968767 1.71864657 3.15145102 3.38707024 3.4375 5.0625 C2.4375 6.0625 2.4375 6.0625 -0.125 6.125 C-1.3315625 6.0940625 -1.3315625 6.0940625 -2.5625 6.0625 C-2.94468767 4.40635343 -3.27645102 2.73792976 -3.5625 1.0625 C-2.5625 0.0625 -2.5625 0.0625 0 0 Z " fill="#68CDEF" transform="translate(112.5625,85.9375)"/>
<path d="M0 0 C1.2065625 0.0309375 1.2065625 0.0309375 2.4375 0.0625 C2.81968767 1.71864657 3.15145102 3.38707024 3.4375 5.0625 C2.4375 6.0625 2.4375 6.0625 -0.125 6.125 C-1.3315625 6.0940625 -1.3315625 6.0940625 -2.5625 6.0625 C-2.94468767 4.40635343 -3.27645102 2.73792976 -3.5625 1.0625 C-2.5625 0.0625 -2.5625 0.0625 0 0 Z " fill="#69CDEF" transform="translate(397.5625,78.9375)"/>
<path d="M0 0 C1.2065625 0.0309375 1.2065625 0.0309375 2.4375 0.0625 C2.81968767 1.71864657 3.15145102 3.38707024 3.4375 5.0625 C2.4375 6.0625 2.4375 6.0625 -0.125 6.125 C-1.3315625 6.0940625 -1.3315625 6.0940625 -2.5625 6.0625 C-2.94468767 4.40635343 -3.27645102 2.73792976 -3.5625 1.0625 C-2.5625 0.0625 -2.5625 0.0625 0 0 Z " fill="#65CCEF" transform="translate(341.5625,45.9375)"/>
<path d="M0 0 C1.67542976 0.28604898 3.34385343 0.61781233 5 1 C5 2.65 5 4.3 5 6 C3.34385343 6.38218767 1.67542976 6.71395102 0 7 C-1 6 -1 6 -1.125 3.5 C-1 1 -1 1 0 0 Z " fill="#69CEEF" transform="translate(180,44)"/>
<path d="M0 0 C1.67542976 0.28604898 3.34385343 0.61781233 5 1 C4.67 2.98 4.34 4.96 4 7 C2.35 6.67 0.7 6.34 -1 6 C-1.042721 4.33388095 -1.04063832 2.66617115 -1 1 C-0.67 0.67 -0.34 0.34 0 0 Z " fill="#66CDEF" transform="translate(44,309)"/>
<path d="M0 0 C2.125 0.375 2.125 0.375 4 1 C4.625 2.875 4.625 2.875 5 5 C4.34 5.66 3.68 6.32 3 7 C0.875 6.625 0.875 6.625 -1 6 C-1.625 4.125 -1.625 4.125 -2 2 C-1.34 1.34 -0.68 0.68 0 0 Z " fill="#5DCAEE" transform="translate(99,97)"/>
<path d="M0 0 C1.67542976 0.28604898 3.34385343 0.61781233 5 1 C5 2.65 5 4.3 5 6 C1.25 7.125 1.25 7.125 -1 6 C-1.042721 4.33388095 -1.04063832 2.66617115 -1 1 C-0.67 0.67 -0.34 0.34 0 0 Z " fill="#67CDEF" transform="translate(292,33)"/>
<path d="M0 0 C0.99 0.33 1.98 0.66 3 1 C1.75627811 1.98712878 0.50472782 2.96439905 -0.75 3.9375 C-1.44609375 4.48277344 -2.1421875 5.02804688 -2.859375 5.58984375 C-4.97254294 6.98191241 -6.50435252 7.6582048 -9 8 C-10 7 -10 7 -10.0625 3.9375 C-10.041875 2.968125 -10.02125 1.99875 -10 1 C-9.67 2.32 -9.34 3.64 -9 5 C-7.686298 4.3566152 -6.37407102 3.71021785 -5.0625 3.0625 C-3.96615234 2.52302734 -3.96615234 2.52302734 -2.84765625 1.97265625 C-1.03750973 1.13628173 -1.03750973 1.13628173 0 0 Z " fill="#9FDEF4" transform="translate(390,246)"/>
<path d="M0 0 C0 0.66 0 1.32 0 2 C-1.96466413 3.06775224 -3.96855359 4.06553465 -6 5 C-6.66 4.67 -7.32 4.34 -8 4 C-7.67 3.34 -7.34 2.68 -7 2 C-11.455 2.495 -11.455 2.495 -16 3 C-10.85913339 -0.42724441 -5.99202204 -0.1015597 0 0 Z " fill="#8BD7F2" transform="translate(142,223)"/>
<path d="M0 0 C2.97 0.495 2.97 0.495 6 1 C5.01 1.495 5.01 1.495 4 2 C4.433125 2.62648438 4.86625 3.25296875 5.3125 3.8984375 C6.1478125 5.12433594 6.1478125 5.12433594 7 6.375 C7.8353125 7.59316406 7.8353125 7.59316406 8.6875 8.8359375 C10 11 10 11 10 13 C9.34 13 8.68 13 8 13 C6.30859375 10.91796875 6.30859375 10.91796875 4.4375 8.1875 C3.81746094 7.29417969 3.19742188 6.40085937 2.55859375 5.48046875 C1 3 1 3 0 0 Z " fill="#94DAF3" transform="translate(153,103)"/>
<path d="M0 0 C0.99 0.33 1.98 0.66 3 1 C4.16796875 3.65234375 4.16796875 3.65234375 5.1875 6.9375 C5.70376953 8.55978516 5.70376953 8.55978516 6.23046875 10.21484375 C7 13 7 13 7 15 C6.34 15 5.68 15 5 15 C4.01 12.03 3.02 9.06 2 6 C1.34 6.99 0.68 7.98 0 9 C0 6.03 0 3.06 0 0 Z " fill="#85D5F1" transform="translate(207,77)"/>
<path d="M0 0 C1.65 0 3.3 0 5 0 C5.38218767 1.65614657 5.71395102 3.32457024 6 5 C5 6 5 6 2.4375 6.0625 C1.2309375 6.0315625 1.2309375 6.0315625 0 6 C0 4.02 0 2.04 0 0 Z " fill="#62CBEF" transform="translate(122,76)"/>
<path d="M0 0 C1.98 0 3.96 0 6 0 C6 1.65 6 3.3 6 5 C4.34385343 5.38218767 2.67542976 5.71395102 1 6 C0 5 0 5 -0.0625 2.4375 C-0.041875 1.633125 -0.02125 0.82875 0 0 Z " fill="#62CBEE" transform="translate(323,41)"/>
<path d="M0 0 C6.625 -0.25 6.625 -0.25 10 2 C10.40843923 4.71203652 10.13336867 7.2437142 10 10 C9.67 10 9.34 10 9 10 C8.6596875 8.329375 8.6596875 8.329375 8.3125 6.625 C7.39376342 2.83961627 7.39376342 2.83961627 4.375 1.5625 C3.59125 1.376875 2.8075 1.19125 2 1 C1.67 3.31 1.34 5.62 1 8 C0.67 8 0.34 8 0 8 C0 5.36 0 2.72 0 0 Z " fill="#8DD8F2" transform="translate(284,72)"/>
<path d="M0 0 C-1.23263349 3.69790046 -2.20052451 3.9354846 -5.5625 5.6875 C-6.80193359 6.34298828 -6.80193359 6.34298828 -8.06640625 7.01171875 C-8.70449219 7.33785156 -9.34257813 7.66398437 -10 8 C-10 6.68 -10 5.36 -10 4 C-3.375 0 -3.375 0 0 0 Z " fill="#6ECFEF" transform="translate(137,262)"/>
<path d="M0 0 C0.66 0 1.32 0 2 0 C0.10609753 5.6817074 -3.22031236 8.5859374 -8 12 C-8.66 11.67 -9.32 11.34 -10 11 C-9.36191406 10.37351562 -8.72382813 9.74703125 -8.06640625 9.1015625 C-7.24011719 8.28429687 -6.41382813 7.46703125 -5.5625 6.625 C-4.73878906 5.81289062 -3.91507813 5.00078125 -3.06640625 4.1640625 C-0.96565328 2.17651485 -0.96565328 2.17651485 0 0 Z " fill="#89D7F2" transform="translate(247,249)"/>
<path d="M0 0 C0.33 0 0.66 0 1 0 C1.99939172 7.22533204 1.96290189 12.95664616 0 20 C-0.33 20 -0.66 20 -1 20 C-1.10152799 13.2314676 -1.03026944 6.69675136 0 0 Z " fill="#BDE7F7" transform="translate(264,237)"/>
<path d="M0 0 C5 2 5 2 6 4 C4.35 3.67 2.7 3.34 1 3 C-0.65 5.31 -2.3 7.62 -4 10 C-4.66 9.67 -5.32 9.34 -6 9 C-4.02 6.03 -2.04 3.06 0 0 Z " fill="#8AD7F2" transform="translate(354,97)"/>
<path d="M0 0 C1.25127906 3.54667178 0.72285053 5.72253438 -0.4375 9.25 C-0.72496094 10.14203125 -1.01242187 11.0340625 -1.30859375 11.953125 C-1.53675781 12.62859375 -1.76492188 13.3040625 -2 14 C-2.99 14 -3.98 14 -5 14 C-3.45730076 9.27934033 -1.92205381 4.58335908 0 0 Z " fill="#91D9F2" transform="translate(301,254)"/>
<path d="M0 0 C-0.33 4.29 -0.66 8.58 -1 13 C-1.33 13 -1.66 13 -2 13 C-2 9.37 -2 5.74 -2 2 C-3.98 2 -5.96 2 -8 2 C-4.91190305 0.23537317 -3.76687864 0 0 0 Z " fill="#D1EEF9" transform="translate(111,198)"/>
<path d="M0 0 C0.99 0.33 1.98 0.66 3 1 C4.4088468 5.61788672 5.28363377 10.22422512 6 15 C4 14 4 14 2.9296875 11.34765625 C2.40761719 9.72150391 2.40761719 9.72150391 1.875 8.0625 C1.52179688 6.98097656 1.16859375 5.89945312 0.8046875 4.78515625 C0 2 0 2 0 0 Z " fill="#84D5F1" transform="translate(196,80)"/>
<path d="M0 0 C0.66 0 1.32 0 2 0 C0.55049545 3.7910119 -1.15172566 7.3874638 -3 11 C-3.99 10.34 -4.98 9.68 -6 9 C-5.05016642 7.49460339 -4.08988109 5.99579653 -3.125 4.5 C-2.59132813 3.6646875 -2.05765625 2.829375 -1.5078125 1.96875 C-0.76144531 0.99421875 -0.76144531 0.99421875 0 0 Z " fill="#93DAF3" transform="translate(429,236)"/>
<path d="M0 0 C0.66 0.33 1.32 0.66 2 1 C-1.3 4.3 -4.6 7.6 -8 11 C-8 7.0234755 -6.61988497 5.9109833 -4 3 C-1.75 1.1875 -1.75 1.1875 0 0 Z " fill="#7DD3F1" transform="translate(219,220)"/>
<path d="M0 0 C0.66 0 1.32 0 2 0 C1.25 7.75 1.25 7.75 -1 10 C-2.46726798 6.18510326 -1.43336419 3.70988378 0 0 Z " fill="#6DCEEF" transform="translate(173,257)"/>
<path d="M0 0 C0.66 0.66 1.32 1.32 2 2 C1.96712417 4.72869407 1.43602229 7.2966618 1 10 C-1 8 -1 8 -1.1875 4.4375 C-1 1 -1 1 0 0 Z " fill="#5DCAEE" transform="translate(379,242)"/>
<path d="M0 0 C0.66 0.66 1.32 1.32 2 2 C0 4 0 4 -2.625 4.125 C-3.40875 4.08375 -4.1925 4.0425 -5 4 C-5 3.01 -5 2.02 -5 1 C-2.625 0.375 -2.625 0.375 0 0 Z " fill="#B4E4F6" transform="translate(236,84)"/>
<path d="M0 0 C0.66 0 1.32 0 2 0 C2.33 2.64 2.66 5.28 3 8 C2.01 8.33 1.02 8.66 0 9 C0 6.03 0 3.06 0 0 Z " fill="#6FCFF0" transform="translate(396,269)"/>
<path d="M0 0 C1.36125 0.12375 1.36125 0.12375 2.75 0.25 C2.75 0.58 2.75 0.91 2.75 1.25 C1.1 1.58 -0.55 1.91 -2.25 2.25 C-2.25 2.91 -2.25 3.57 -2.25 4.25 C-4.23 5.24 -4.23 5.24 -6.25 6.25 C-6.58 5.59 -6.91 4.93 -7.25 4.25 C-4.83923194 1.28290085 -3.90322061 0.30024774 0 0 Z " fill="#7BD2F0" transform="translate(282.25,221.75)"/>
<path d="M0 0 C0.33 1.32 0.66 2.64 1 4 C2.65 4 4.3 4 6 4 C5.01 4.99 4.02 5.98 3 7 C2.01 6.67 1.02 6.34 0 6 C0 4.02 0 2.04 0 0 Z " fill="#8FD9F2" transform="translate(380,247)"/>
</svg>
